<svg width="226" height="117" viewBox="0 0 226 117" fill="none" xmlns="http://www.w3.org/2000/svg">
<g id="Union">
<mask id="path-1-inside-1_217_2654" fill="white">
<path fill-rule="evenodd" clip-rule="evenodd" d="M152.397 116.528H105.395C105.381 116.528 105.367 116.528 105.352 116.528C105.338 116.528 105.324 116.528 105.31 116.528H44.1393H35.9066C31.6313 116.528 27.7363 114.9 24.8077 112.23C24.5822 112.024 24.3322 111.846 24.0606 111.707C9.77716 104.398 0 89.5352 0 72.3885C0 48.011 19.7619 28.2492 44.1393 28.2492C46.9807 28.2492 49.7593 28.5176 52.4512 29.0306C53.7685 29.2816 55.1158 28.7031 55.8234 27.564C66.1014 11.0172 84.4404 0 105.352 0C126.029 0 144.19 10.7704 154.531 27.007C155.06 27.8375 155.945 28.3758 156.925 28.4748C173.43 30.1425 187.25 40.9033 193.298 55.6705C193.817 56.937 195.075 57.7496 196.444 57.7421C196.498 57.7418 196.553 57.7417 196.607 57.7417C212.84 57.7417 226 70.9014 226 87.1348C226 101.836 215.207 114.016 201.113 116.185C200.027 116.41 198.903 116.528 197.751 116.528H196.607H152.472C152.459 116.528 152.447 116.528 152.434 116.528C152.422 116.528 152.41 116.528 152.397 116.528Z"/>
</mask>
<path fill-rule="evenodd" clip-rule="evenodd" d="M152.397 116.528H105.395C105.381 116.528 105.367 116.528 105.352 116.528C105.338 116.528 105.324 116.528 105.31 116.528H44.1393H35.9066C31.6313 116.528 27.7363 114.9 24.8077 112.23C24.5822 112.024 24.3322 111.846 24.0606 111.707C9.77716 104.398 0 89.5352 0 72.3885C0 48.011 19.7619 28.2492 44.1393 28.2492C46.9807 28.2492 49.7593 28.5176 52.4512 29.0306C53.7685 29.2816 55.1158 28.7031 55.8234 27.564C66.1014 11.0172 84.4404 0 105.352 0C126.029 0 144.19 10.7704 154.531 27.007C155.06 27.8375 155.945 28.3758 156.925 28.4748C173.43 30.1425 187.25 40.9033 193.298 55.6705C193.817 56.937 195.075 57.7496 196.444 57.7421C196.498 57.7418 196.553 57.7417 196.607 57.7417C212.84 57.7417 226 70.9014 226 87.1348C226 101.836 215.207 114.016 201.113 116.185C200.027 116.41 198.903 116.528 197.751 116.528H196.607H152.472C152.459 116.528 152.447 116.528 152.434 116.528C152.422 116.528 152.41 116.528 152.397 116.528Z" fill="white" fill-opacity="0.85"/>
<path d="M201.113 116.185L200.352 111.243L200.225 111.262L200.098 111.289L201.113 116.185ZM193.298 55.6705L197.925 53.7755L193.298 55.6705ZM52.4512 29.0306L51.5153 33.9422L52.4512 29.0306ZM55.8234 27.564L60.0707 30.2023L55.8234 27.564ZM154.531 27.007L158.748 24.321L154.531 27.007ZM24.8077 112.23L28.1764 108.535L24.8077 112.23ZM24.0606 111.707L26.3382 107.256L24.0606 111.707ZM152.397 111.528H105.395V121.528H152.397V111.528ZM105.395 111.528C105.386 111.528 105.378 111.528 105.371 111.528C105.364 111.528 105.358 111.528 105.352 111.528V121.528C105.361 121.528 105.37 121.528 105.376 121.528C105.384 121.528 105.39 121.528 105.395 121.528V111.528ZM105.352 111.528C105.347 111.528 105.341 111.528 105.334 111.528C105.327 111.528 105.319 111.528 105.31 111.528V121.528C105.315 121.528 105.321 121.528 105.328 121.528C105.335 121.528 105.344 121.528 105.352 121.528V111.528ZM105.31 111.528H44.1393V121.528H105.31V111.528ZM44.1393 111.528H35.9066V121.528H44.1393V111.528ZM35.9066 111.528C32.9256 111.528 30.2201 110.398 28.1764 108.535L21.439 115.925C25.2525 119.401 30.337 121.528 35.9066 121.528V111.528ZM26.3382 107.256C13.6604 100.769 5 87.5857 5 72.3885H-5C-5 91.4847 5.89396 108.028 21.783 116.158L26.3382 107.256ZM5 72.3885C5 50.7724 22.5233 33.2492 44.1393 33.2492V23.2492C17.0004 23.2492 -5 45.2496 -5 72.3885H5ZM44.1393 33.2492C46.665 33.2492 49.1303 33.4877 51.5153 33.9422L53.3872 24.119C50.3883 23.5475 47.2963 23.2492 44.1393 23.2492V33.2492ZM60.0707 30.2023C69.4748 15.0624 86.2406 5 105.352 5V-5C82.6401 -5 62.7281 6.97201 51.5761 24.9258L60.0707 30.2023ZM105.352 5C124.249 5 140.852 14.8369 150.314 29.693L158.748 24.321C147.528 6.70398 127.809 -5 105.352 -5V5ZM156.422 33.4495C171.042 34.9267 183.305 44.4641 188.671 57.5655L197.925 53.7755C191.195 37.3425 175.818 25.3582 157.428 23.5001L156.422 33.4495ZM196.471 62.7421C196.516 62.7418 196.562 62.7417 196.607 62.7417V52.7417C196.544 52.7417 196.48 52.7419 196.417 52.7422L196.471 62.7421ZM196.607 62.7417C210.079 62.7417 221 73.6628 221 87.1348H231C231 68.14 215.602 52.7417 196.607 52.7417V62.7417ZM221 87.1348C221 99.3306 212.045 109.444 200.352 111.243L201.873 121.126C218.369 118.589 231 104.341 231 87.1348H221ZM200.098 111.289C199.344 111.445 198.56 111.528 197.751 111.528V121.528C199.246 121.528 200.71 121.374 202.127 121.081L200.098 111.289ZM197.751 111.528H196.607V121.528H197.751V111.528ZM196.607 111.528H152.472V121.528H196.607V111.528ZM152.472 111.528C152.464 111.528 152.456 111.528 152.45 111.528C152.443 111.528 152.439 111.528 152.434 111.528V121.528C152.442 121.528 152.45 121.528 152.456 121.528C152.463 121.528 152.467 121.528 152.472 121.528V111.528ZM152.434 111.528C152.43 111.528 152.425 111.528 152.419 111.528C152.413 111.528 152.405 111.528 152.397 111.528V121.528C152.402 121.528 152.406 121.528 152.413 121.528C152.419 121.528 152.426 121.528 152.434 121.528V111.528ZM188.671 57.5655C189.989 60.7832 193.133 62.7602 196.471 62.7421L196.417 52.7422C197.018 52.7389 197.644 53.0908 197.925 53.7755L188.671 57.5655ZM51.5153 33.9422C54.8287 34.5736 58.253 33.1287 60.0707 30.2023L51.5761 24.9258C51.9787 24.2776 52.7082 23.9896 53.3872 24.119L51.5153 33.9422ZM150.314 29.693C151.678 31.8344 153.943 33.1989 156.422 33.4495L157.428 23.5001C157.948 23.5527 158.442 23.8405 158.748 24.321L150.314 29.693ZM28.1764 108.535C27.6549 108.059 27.0428 107.616 26.3382 107.256L21.783 116.158C21.6217 116.076 21.5096 115.989 21.439 115.925L28.1764 108.535Z" fill="#374667" mask="url(#path-1-inside-1_217_2654)"/>
</g>
</svg>
