<svg width="42" height="51" viewBox="0 0 42 51" fill="none" xmlns="http://www.w3.org/2000/svg">
<g id="Group">
<path id="Vector" d="M38.8494 7.29822H41.2715V48.5699H38.8494V7.29822Z" fill="#374667"/>
<path id="Vector_2" d="M36.4114 4.8602H38.8494V7.29826H36.4114V4.8602Z" fill="#374667"/>
<path id="Vector_3" d="M33.9895 2.43805H36.4116V4.86017H33.9895V2.43805Z" fill="#374667"/>
<path id="Vector_4" d="M36.4083 12.1425H33.9862V9.72834H31.5641V7.29826H29.126V4.8602H0V51H36.4083V12.1425ZM33.9862 48.5699H2.42212V7.29826H24.269V17.0027H33.9894L33.9862 48.5699Z" fill="#374667"/>
<path id="Vector_5" d="M2.42191 0H33.9892V2.43806H2.42191V0Z" fill="#374667"/>
<path id="Vector_6" d="M7.28229 41.2876H29.1292V43.7097H7.28229V41.2876Z" fill="#374667"/>
<path id="Vector_7" d="M7.28229 31.5673H29.1292V34.0053H7.28229V31.5673Z" fill="#374667"/>
<path id="Vector_8" d="M7.28229 21.8629H29.1292V24.285H7.28229V21.8629Z" fill="#374667"/>
<path id="Vector_9" d="M7.28229 12.1425H16.9867V14.5805H7.28229V12.1425Z" fill="#374667"/>
</g>
</svg>
