<svg width="218" height="214" viewBox="0 0 218 214" fill="none" xmlns="http://www.w3.org/2000/svg">
<g id="moon-stars--night-time">
<path id="Subtract" d="M80.2542 81.4819C80.2542 120.388 111.789 151.923 150.69 151.923C156.377 151.923 161.902 151.248 167.198 149.98C171.308 148.991 175.29 152.719 173.646 156.626C160.202 188.566 128.612 211 91.7805 211C42.7483 211 3 171.252 3 122.22C3 73.1873 42.7483 33.439 91.7805 33.439C94.6773 33.439 96.0876 36.8888 94.3475 39.2123C85.1784 51.3968 80.2307 66.238 80.2542 81.487V81.4819Z" fill="#D4E6FF"/>
<path id="Vector 2594" d="M134.902 3V33.439" stroke="#374667" stroke-width="5" stroke-linecap="round" stroke-linejoin="round"/>
<path id="Vector 2595" d="M150.122 18.2195H119.683" stroke="#374667" stroke-width="5" stroke-linecap="round" stroke-linejoin="round"/>
<path id="Subtract_2" d="M80.2542 81.4819C80.2542 120.388 111.794 151.923 150.695 151.923C156.377 151.923 161.907 151.248 167.198 149.98C171.313 148.991 175.29 152.719 173.651 156.626C160.207 188.566 128.612 211 91.7805 211C42.7483 211 3 171.252 3 122.22C3 73.1873 42.7483 33.439 91.7805 33.439C94.6823 33.439 96.0927 36.8888 94.3475 39.2123C85.1784 51.3968 80.2307 66.238 80.2542 81.487V81.4819Z" stroke="#374667" stroke-width="5" stroke-linecap="round" stroke-linejoin="round"/>
<path id="Star 10" d="M178.878 116.194C177.649 119.935 172.355 119.935 171.122 116.194L163.523 93.0796C163.323 92.4725 162.983 91.9207 162.531 91.4688C162.079 91.0168 161.528 90.6772 160.92 90.4773L137.806 82.8775C134.065 81.6446 134.065 76.3507 137.806 75.1225L160.92 67.5227C161.528 67.3228 162.079 66.9832 162.531 66.5312C162.983 66.0793 163.323 65.5275 163.523 64.9204L171.122 41.8058C172.351 38.0647 177.645 38.0647 178.878 41.8058L186.477 64.9204C186.677 65.5275 187.017 66.0793 187.469 66.5312C187.921 66.9832 188.472 67.3228 189.08 67.5227L212.194 75.1225C215.935 76.3554 215.935 81.6493 212.194 82.8775L189.08 90.4773C188.472 90.6772 187.921 91.0168 187.469 91.4688C187.017 91.9207 186.677 92.4725 186.477 93.0796L178.878 116.194Z" fill="white"/>
<path id="Star 11" d="M178.878 116.194C177.649 119.935 172.355 119.935 171.122 116.194L163.523 93.0796C163.323 92.4725 162.983 91.9207 162.531 91.4688C162.079 91.0168 161.528 90.6772 160.92 90.4773L137.806 82.8775C134.065 81.6446 134.065 76.3507 137.806 75.1225L160.92 67.5227C161.528 67.3228 162.079 66.9832 162.531 66.5312C162.983 66.0793 163.323 65.5275 163.523 64.9204L171.122 41.8058C172.351 38.0647 177.645 38.0647 178.878 41.8058L186.477 64.9204C186.677 65.5275 187.017 66.0793 187.469 66.5312C187.921 66.9832 188.472 67.3228 189.08 67.5227L212.194 75.1225C215.935 76.3554 215.935 81.6493 212.194 82.8775L189.08 90.4773C188.472 90.6772 187.921 91.0168 187.469 91.4688C187.017 91.9207 186.677 92.4725 186.477 93.0796L178.878 116.194Z" stroke="#374667" stroke-width="5" stroke-linecap="round" stroke-linejoin="round"/>
</g>
</svg>
