<svg width="273" height="120" viewBox="0 0 273 120" fill="none" xmlns="http://www.w3.org/2000/svg">
<g filter="url(#filter0_b_298_4505)">
<mask id="path-1-inside-1_298_4505" fill="white">
<path fill-rule="evenodd" clip-rule="evenodd" d="M22.5 119.845C21.681 119.947 20.8467 120 20 120C8.9543 120 0 111.046 0 100C0 89.0524 8.79602 80.1592 19.7063 80.0021C23.8241 68.3491 34.937 60 48 60C49.7047 60 51.3763 60.1422 53.0034 60.4154C53.0011 60.2772 53 60.1387 53 60C53 46.1929 64.1929 35 78 35C81.4027 35 84.6467 35.6798 87.6035 36.911C96.6484 15.2348 118.045 0 143 0C165.432 0 184.989 12.3103 195.284 30.5439C197.134 30.1869 199.045 30 201 30C214.436 30 225.808 38.8323 229.629 51.0074C232.311 50.3491 235.115 50 238 50C257.33 50 273 65.67 273 85C273 104.33 257.33 120 238 120H143H48H25C24.1533 120 23.319 119.947 22.5 119.845Z"/>
</mask>
<path fill-rule="evenodd" clip-rule="evenodd" d="M22.5 119.845C21.681 119.947 20.8467 120 20 120C8.9543 120 0 111.046 0 100C0 89.0524 8.79602 80.1592 19.7063 80.0021C23.8241 68.3491 34.937 60 48 60C49.7047 60 51.3763 60.1422 53.0034 60.4154C53.0011 60.2772 53 60.1387 53 60C53 46.1929 64.1929 35 78 35C81.4027 35 84.6467 35.6798 87.6035 36.911C96.6484 15.2348 118.045 0 143 0C165.432 0 184.989 12.3103 195.284 30.5439C197.134 30.1869 199.045 30 201 30C214.436 30 225.808 38.8323 229.629 51.0074C232.311 50.3491 235.115 50 238 50C257.33 50 273 65.67 273 85C273 104.33 257.33 120 238 120H143H48H25C24.1533 120 23.319 119.947 22.5 119.845Z" fill="white" fill-opacity="0.85"/>
<path d="M22.5 119.845L22.6237 118.853L22.5 118.838L22.3763 118.853L22.5 119.845ZM19.7063 80.0021L19.7207 81.002L20.4171 80.992L20.6492 80.3353L19.7063 80.0021ZM53.0034 60.4154L52.8378 61.4016L54.0228 61.6005L54.0032 60.3991L53.0034 60.4154ZM87.6035 36.911L87.219 37.8342L88.1415 38.2183L88.5263 37.2961L87.6035 36.911ZM195.284 30.5439L194.413 31.0356L194.767 31.6621L195.473 31.5258L195.284 30.5439ZM229.629 51.0074L228.675 51.3068L228.956 52.2023L229.867 51.9786L229.629 51.0074ZM22.3763 118.853C21.5982 118.95 20.8052 119 20 119V121C20.8881 121 21.7638 120.945 22.6237 120.838L22.3763 118.853ZM20 119C9.50659 119 1 110.493 1 100H-1C-1 111.598 8.40202 121 20 121V119ZM1 100C1 89.5998 9.35623 81.1512 19.7207 81.002L19.6919 79.0022C8.2358 79.1671 -1 88.5049 -1 100H1ZM20.6492 80.3353C24.6302 69.0693 35.374 61 48 61V59C34.5 59 23.018 67.6288 18.7634 79.6689L20.6492 80.3353ZM48 61C49.649 61 51.2652 61.1375 52.8378 61.4016L53.1689 59.4292C51.4874 59.1468 49.7604 59 48 59V61ZM54.0032 60.3991C54.0011 60.2663 54 60.1333 54 60H52C52 60.1441 52.0012 60.288 52.0035 60.4316L54.0032 60.3991ZM54 60C54 46.7452 64.7452 36 78 36V34C63.6406 34 52 45.6406 52 60H54ZM78 36C81.2685 36 84.3819 36.6528 87.219 37.8342L87.9879 35.9879C84.9114 34.7068 81.537 34 78 34V36ZM88.5263 37.2961C97.4214 15.9792 118.463 1 143 1V-1C117.628 -1 95.8755 14.4904 86.6806 36.5259L88.5263 37.2961ZM143 1C165.057 1 184.289 13.1033 194.413 31.0356L196.155 30.0523C185.69 11.5174 165.807 -1 143 -1V1ZM195.473 31.5258C197.262 31.1808 199.109 31 201 31V29C198.981 29 197.007 29.1931 195.094 29.562L195.473 31.5258ZM201 31C213.986 31 224.981 39.5366 228.675 51.3068L230.583 50.708C226.635 38.1279 214.885 29 201 29V31ZM229.867 51.9786C232.472 51.3393 235.196 51 238 51V49C235.034 49 232.15 49.3589 229.391 50.0362L229.867 51.9786ZM238 51C256.778 51 272 66.2223 272 85H274C274 65.1178 257.882 49 238 49V51ZM272 85C272 103.778 256.778 119 238 119V121C257.882 121 274 104.882 274 85H272ZM238 119H143V121H238V119ZM143 119H48V121H143V119ZM48 119H25V121H48V119ZM25 119C24.1948 119 23.4018 118.95 22.6237 118.853L22.3763 120.838C23.2362 120.945 24.1119 121 25 121V119Z" fill="#374667" mask="url(#path-1-inside-1_298_4505)"/>
</g>
<defs>
<filter id="filter0_b_298_4505" x="-5" y="-5" width="283" height="130" filterUnits="userSpaceOnUse" color-interpolation-filters="sRGB">
<feFlood flood-opacity="0" result="BackgroundImageFix"/>
<feGaussianBlur in="BackgroundImageFix" stdDeviation="2.5"/>
<feComposite in2="SourceAlpha" operator="in" result="effect1_backgroundBlur_298_4505"/>
<feBlend mode="normal" in="SourceGraphic" in2="effect1_backgroundBlur_298_4505" result="shape"/>
</filter>
</defs>
</svg>
