<svg width="273" height="120" viewBox="0 0 273 120" fill="none" xmlns="http://www.w3.org/2000/svg">
<mask id="path-1-inside-1_298_4521" fill="white">
<path fill-rule="evenodd" clip-rule="evenodd" d="M22.5 119.845C21.681 119.947 20.8467 120 20 120C8.9543 120 0 111.046 0 100C0 89.0524 8.79602 80.1592 19.7063 80.0021C23.8241 68.3491 34.937 60 48 60C49.7047 60 51.3763 60.1422 53.0034 60.4154C53.0011 60.2772 53 60.1387 53 60C53 46.1929 64.1929 35 78 35C81.4027 35 84.6467 35.6798 87.6035 36.911C96.6484 15.2348 118.045 0 143 0C165.432 0 184.989 12.3103 195.284 30.5439C197.134 30.1869 199.045 30 201 30C214.436 30 225.808 38.8323 229.629 51.0074C232.311 50.3491 235.115 50 238 50C257.33 50 273 65.67 273 85C273 104.33 257.33 120 238 120H143H48H25C24.1533 120 23.319 119.947 22.5 119.845Z"/>
</mask>
<path fill-rule="evenodd" clip-rule="evenodd" d="M22.5 119.845C21.681 119.947 20.8467 120 20 120C8.9543 120 0 111.046 0 100C0 89.0524 8.79602 80.1592 19.7063 80.0021C23.8241 68.3491 34.937 60 48 60C49.7047 60 51.3763 60.1422 53.0034 60.4154C53.0011 60.2772 53 60.1387 53 60C53 46.1929 64.1929 35 78 35C81.4027 35 84.6467 35.6798 87.6035 36.911C96.6484 15.2348 118.045 0 143 0C165.432 0 184.989 12.3103 195.284 30.5439C197.134 30.1869 199.045 30 201 30C214.436 30 225.808 38.8323 229.629 51.0074C232.311 50.3491 235.115 50 238 50C257.33 50 273 65.67 273 85C273 104.33 257.33 120 238 120H143H48H25C24.1533 120 23.319 119.947 22.5 119.845Z" fill="white" fill-opacity="0.85"/>
<path d="M22.5 119.845L23.1187 114.884L22.5 114.807L21.8813 114.884L22.5 119.845ZM19.7063 80.0021L19.7783 85.0016L23.2604 84.9515L24.4206 81.668L19.7063 80.0021ZM53.0034 60.4154L52.1755 65.3464L58.1006 66.3411L58.0027 60.3339L53.0034 60.4154ZM87.6035 36.911L85.6814 41.5268L90.2938 43.4475L92.2178 38.8365L87.6035 36.911ZM195.284 30.5439L190.93 33.0022L192.699 36.1348L196.231 35.4534L195.284 30.5439ZM229.629 51.0074L224.858 52.5044L226.263 56.9818L230.821 55.8633L229.629 51.0074ZM21.8813 114.884C21.2671 114.96 20.6393 115 20 115V125C21.054 125 22.095 124.935 23.1187 124.807L21.8813 114.884ZM20 115C11.7157 115 5 108.284 5 100H-5C-5 113.807 6.19288 125 20 125V115ZM5 100C5 91.7897 11.5971 85.1194 19.7783 85.0016L19.6343 75.0026C5.99494 75.199 -5 86.315 -5 100H5ZM24.4206 81.668C27.8545 71.9504 37.122 65 48 65V55C32.7521 55 19.7937 64.7478 14.992 78.3362L24.4206 81.668ZM48 65C49.4262 65 50.8209 65.1189 52.1755 65.3464L53.8312 55.4844C51.9317 55.1655 49.9833 55 48 55V65ZM58.0027 60.3339C58.0009 60.2229 58 60.1116 58 60H48C48 60.1659 48.0014 60.3315 48.004 60.4968L58.0027 60.3339ZM58 60C58 48.9543 66.9543 40 78 40V30C61.4315 30 48 43.4315 48 60H58ZM78 40C80.7314 40 83.3229 40.5448 85.6814 41.5268L89.5255 32.2952C85.9705 30.8149 82.0741 30 78 30V40ZM92.2178 38.8365C100.513 18.9569 120.133 5 143 5V-5C115.958 -5 92.7838 11.5127 82.9891 34.9856L92.2178 38.8365ZM143 5C163.556 5 181.486 16.2751 190.93 33.0022L199.638 28.0857C188.493 8.34562 167.308 -5 143 -5V5ZM196.231 35.4534C197.771 35.1563 199.365 35 201 35V25C198.726 25 196.498 25.2176 194.337 25.6344L196.231 35.4534ZM201 35C212.189 35 221.673 42.3539 224.858 52.5044L234.4 49.5104C229.944 35.3106 216.682 25 201 25V35ZM230.821 55.8633C233.116 55.3 235.52 55 238 55V45C234.71 45 231.506 45.3982 228.437 46.1515L230.821 55.8633ZM238 55C254.569 55 268 68.4315 268 85H278C278 62.9086 260.091 45 238 45V55ZM268 85C268 101.569 254.569 115 238 115V125C260.091 125 278 107.091 278 85H268ZM238 115H143V125H238V115ZM143 115H48V125H143V115ZM48 115H25V125H48V115ZM25 115C24.3607 115 23.7329 114.96 23.1187 114.884L21.8813 124.807C22.905 124.935 23.946 125 25 125V115Z" fill="#374667" mask="url(#path-1-inside-1_298_4521)"/>
</svg>
