<svg width="389" height="274" viewBox="0 0 389 274" fill="none" xmlns="http://www.w3.org/2000/svg">
<path d="M253.254 80.3575C253.254 119.698 284.789 151.584 323.69 151.584C329.377 151.584 334.902 150.902 340.198 149.62C344.308 148.619 348.29 152.39 346.646 156.34C333.202 188.637 301.612 211.32 264.78 211.32C215.748 211.32 176 171.129 176 121.55C176 71.9703 215.748 31.7786 264.78 31.7786C267.677 31.7786 269.088 35.2668 267.348 37.6163C258.178 49.9367 253.231 64.9434 253.254 80.3626V80.3575Z" fill="#D4E6FF"/>
<path d="M307.902 1V31.7786" stroke="#374667" stroke-linecap="round" stroke-linejoin="round"/>
<path d="M323.122 16.3893H292.683" stroke="#374667" stroke-linecap="round" stroke-linejoin="round"/>
<path d="M253.254 80.3575C253.254 119.698 284.794 151.584 323.695 151.584C329.377 151.584 334.907 150.902 340.198 149.62C344.313 148.619 348.29 152.39 346.651 156.34C333.207 188.637 301.612 211.32 264.78 211.32C215.748 211.32 176 171.129 176 121.55C176 71.9703 215.748 31.7786 264.78 31.7786C267.682 31.7786 269.093 35.2668 267.348 37.6163C258.178 49.9367 253.231 64.9434 253.254 80.3626V80.3575Z" stroke="#374667" stroke-linecap="round" stroke-linejoin="round"/>
<path d="M351.878 115.457C350.649 119.24 345.355 119.24 344.122 115.457L336.523 92.0845C336.323 91.4706 335.983 90.9127 335.531 90.4557C335.079 89.9987 334.528 89.6553 333.92 89.4532L310.806 81.7686C307.065 80.522 307.065 75.169 310.806 73.9271L333.92 66.2425C334.528 66.0404 335.079 65.697 335.531 65.24C335.983 64.783 336.323 64.2251 336.523 63.6112L344.122 40.2387C345.351 36.4559 350.645 36.4559 351.878 40.2387L359.477 63.6112C359.677 64.2251 360.017 64.783 360.469 65.24C360.921 65.697 361.472 66.0404 362.08 66.2425L385.194 73.9271C388.935 75.1737 388.935 80.5267 385.194 81.7686L362.08 89.4532C361.472 89.6553 360.921 89.9987 360.469 90.4557C360.017 90.9127 359.677 91.4706 359.477 92.0845L351.878 115.457Z" fill="white"/>
<path d="M351.878 115.457C350.649 119.24 345.355 119.24 344.122 115.457L336.523 92.0845C336.323 91.4706 335.983 90.9127 335.531 90.4557C335.079 89.9987 334.528 89.6553 333.92 89.4532L310.806 81.7686C307.065 80.522 307.065 75.169 310.806 73.9271L333.92 66.2425C334.528 66.0404 335.079 65.697 335.531 65.24C335.983 64.783 336.323 64.2251 336.523 63.6112L344.122 40.2387C345.351 36.4559 350.645 36.4559 351.878 40.2387L359.477 63.6112C359.677 64.2251 360.017 64.783 360.469 65.24C360.921 65.697 361.472 66.0404 362.08 66.2425L385.194 73.9271C388.935 75.1737 388.935 80.5267 385.194 81.7686L362.08 89.4532C361.472 89.6553 360.921 89.9987 360.469 90.4557C360.017 90.9127 359.677 91.4706 359.477 92.0845L351.878 115.457Z" stroke="#374667" stroke-linecap="round" stroke-linejoin="round"/>
<g filter="url(#filter0_b_807_1229)">
<mask id="path-7-inside-1_807_1229" fill="white">
<path fill-rule="evenodd" clip-rule="evenodd" d="M282.536 274H68.8041H23.1753C22.7492 274 22.3294 273.973 21.9173 273.922C21.3281 273.974 20.7316 274 20.1289 274C9.012 274 0 264.988 0 253.871C0 242.754 9.012 233.742 20.1289 233.742C21.7694 233.742 23.3642 233.939 24.8909 234.309C24.888 234.12 24.8866 233.931 24.8866 233.742C24.8866 211.509 44.5491 193.485 68.8041 193.485C73.2088 193.485 77.462 194.079 81.4736 195.185C84.3325 159.814 113.944 132 150.052 132C172.284 132 192.053 142.545 204.632 158.906C212.63 154.807 221.694 152.495 231.299 152.495C257.619 152.495 279.884 169.86 287.26 193.759C306.072 195.958 320.922 211.126 322.63 230.083C322.684 230.083 322.739 230.082 322.794 230.082C334.921 230.082 344.753 239.914 344.753 252.041C344.753 264.169 334.921 274 322.794 274C322.106 274 321.426 273.968 320.754 273.907C320.305 273.968 319.847 274 319.381 274H282.536Z"/>
</mask>
<path fill-rule="evenodd" clip-rule="evenodd" d="M282.536 274H68.8041H23.1753C22.7492 274 22.3294 273.973 21.9173 273.922C21.3281 273.974 20.7316 274 20.1289 274C9.012 274 0 264.988 0 253.871C0 242.754 9.012 233.742 20.1289 233.742C21.7694 233.742 23.3642 233.939 24.8909 234.309C24.888 234.12 24.8866 233.931 24.8866 233.742C24.8866 211.509 44.5491 193.485 68.8041 193.485C73.2088 193.485 77.462 194.079 81.4736 195.185C84.3325 159.814 113.944 132 150.052 132C172.284 132 192.053 142.545 204.632 158.906C212.63 154.807 221.694 152.495 231.299 152.495C257.619 152.495 279.884 169.86 287.26 193.759C306.072 195.958 320.922 211.126 322.63 230.083C322.684 230.083 322.739 230.082 322.794 230.082C334.921 230.082 344.753 239.914 344.753 252.041C344.753 264.169 334.921 274 322.794 274C322.106 274 321.426 273.968 320.754 273.907C320.305 273.968 319.847 274 319.381 274H282.536Z" fill="white" fill-opacity="0.85"/>
<path d="M21.9173 273.922L22.0418 272.929L21.9359 272.916L21.8296 272.925L21.9173 273.922ZM24.8909 234.309L24.6551 235.281L25.9102 235.585L25.8907 234.294L24.8909 234.309ZM81.4736 195.185L81.2078 196.149L82.3729 196.47L82.4703 195.266L81.4736 195.185ZM204.632 158.906L203.839 159.515L204.347 160.175L205.088 159.796L204.632 158.906ZM287.26 193.759L286.305 194.054L286.497 194.676L287.144 194.752L287.26 193.759ZM322.63 230.083L321.634 230.173L321.716 231.09L322.637 231.083L322.63 230.083ZM320.754 273.907L320.846 272.911L320.732 272.9L320.618 272.916L320.754 273.907ZM282.536 273H68.8041V275H282.536V273ZM68.8041 273H23.1753V275H68.8041V273ZM23.1753 273C22.7909 273 22.4127 272.976 22.0418 272.929L21.7928 274.914C22.246 274.971 22.7074 275 23.1753 275V273ZM21.8296 272.925C21.2695 272.975 20.7022 273 20.1289 273V275C20.7609 275 21.3867 274.972 22.005 274.918L21.8296 272.925ZM20.1289 273C9.56428 273 1 264.436 1 253.871H-1C-1 265.54 8.45972 275 20.1289 275V273ZM1 253.871C1 243.307 9.56429 234.742 20.1289 234.742V232.742C8.45971 232.742 -1 242.202 -1 253.871H1ZM20.1289 234.742C21.6894 234.742 23.205 234.929 24.6551 235.281L25.1266 233.337C23.5233 232.948 21.8495 232.742 20.1289 232.742V234.742ZM25.8907 234.294C25.888 234.11 25.8866 233.926 25.8866 233.742H23.8866C23.8866 233.936 23.8881 234.13 23.891 234.324L25.8907 234.294ZM25.8866 233.742C25.8866 212.141 45.0177 194.485 68.8041 194.485V192.485C44.0805 192.485 23.8866 210.876 23.8866 233.742H25.8866ZM68.8041 194.485C73.1186 194.485 77.2825 195.067 81.2078 196.149L81.7394 194.221C77.6416 193.091 73.299 192.485 68.8041 192.485V194.485ZM82.4703 195.266C85.2877 160.409 114.469 133 150.052 133V131C113.419 131 83.3774 159.218 80.4768 195.104L82.4703 195.266ZM150.052 133C171.96 133 191.442 143.39 203.839 159.515L205.425 158.296C192.665 141.7 172.608 131 150.052 131V133ZM205.088 159.796C212.948 155.768 221.857 153.495 231.299 153.495V151.495C221.532 151.495 212.312 153.847 204.176 158.016L205.088 159.796ZM231.299 153.495C257.168 153.495 279.054 170.562 286.305 194.054L288.216 193.464C280.714 169.158 258.07 151.495 231.299 151.495V153.495ZM287.144 194.752C305.487 196.896 319.968 211.688 321.634 230.173L323.626 229.993C321.875 210.563 306.657 195.019 287.376 192.766L287.144 194.752ZM322.637 231.083C322.689 231.083 322.742 231.082 322.794 231.082V229.082C322.737 229.082 322.679 229.083 322.622 229.083L322.637 231.083ZM322.794 231.082C334.369 231.082 343.753 240.466 343.753 252.041H345.753C345.753 239.361 335.474 229.082 322.794 229.082V231.082ZM343.753 252.041C343.753 263.616 334.369 273 322.794 273V275C335.474 275 345.753 264.721 345.753 252.041H343.753ZM322.794 273C322.137 273 321.487 272.97 320.846 272.911L320.663 274.902C321.365 274.967 322.075 275 322.794 275V273ZM320.618 272.916C320.214 272.971 319.802 273 319.381 273V275C319.893 275 320.397 274.965 320.89 274.897L320.618 272.916ZM319.381 273H282.536V275H319.381V273Z" fill="#374667" mask="url(#path-7-inside-1_807_1229)"/>
</g>
<defs>
<filter id="filter0_b_807_1229" x="-5" y="127" width="354.753" height="152" filterUnits="userSpaceOnUse" color-interpolation-filters="sRGB">
<feFlood flood-opacity="0" result="BackgroundImageFix"/>
<feGaussianBlur in="BackgroundImageFix" stdDeviation="2.5"/>
<feComposite in2="SourceAlpha" operator="in" result="effect1_backgroundBlur_807_1229"/>
<feBlend mode="normal" in="SourceGraphic" in2="effect1_backgroundBlur_807_1229" result="shape"/>
</filter>
</defs>
</svg>
