<svg width="305" height="134" viewBox="0 0 305 134" fill="none" xmlns="http://www.w3.org/2000/svg">
<g filter="url(#filter0_b_298_4513)">
<mask id="path-1-inside-1_298_4513" fill="white">
<path fill-rule="evenodd" clip-rule="evenodd" d="M39.0834 134H145.167H251.25H279.267C279.799 134 280.325 133.979 280.847 133.939C281.398 133.979 281.955 134 282.517 134C294.851 134 304.85 124.001 304.85 111.667C304.85 99.4418 295.028 89.5111 282.845 89.3357C278.247 76.3231 265.837 67 251.25 67C249.346 67 247.48 67.1588 245.663 67.4638C245.666 67.3095 245.667 67.1549 245.667 67C245.667 51.5821 233.168 39.0833 217.75 39.0833C213.95 39.0833 210.328 39.8425 207.026 41.2173C196.926 17.0122 173.033 0 145.167 0C120.117 0 98.2787 13.7466 86.7831 34.1074C84.7167 33.7087 82.5828 33.5 80.4001 33.5C65.397 33.5 52.6974 43.3627 48.4311 56.9583C45.436 56.2232 42.3053 55.8333 39.0834 55.8333C17.4983 55.8333 9.15527e-05 73.3315 9.15527e-05 94.9167C9.15527e-05 113.738 13.3047 129.453 31.0223 133.168C32.8369 133.709 34.7595 134 36.7501 134H39.0834Z"/>
</mask>
<path fill-rule="evenodd" clip-rule="evenodd" d="M39.0834 134H145.167H251.25H279.267C279.799 134 280.325 133.979 280.847 133.939C281.398 133.979 281.955 134 282.517 134C294.851 134 304.85 124.001 304.85 111.667C304.85 99.4418 295.028 89.5111 282.845 89.3357C278.247 76.3231 265.837 67 251.25 67C249.346 67 247.48 67.1588 245.663 67.4638C245.666 67.3095 245.667 67.1549 245.667 67C245.667 51.5821 233.168 39.0833 217.75 39.0833C213.95 39.0833 210.328 39.8425 207.026 41.2173C196.926 17.0122 173.033 0 145.167 0C120.117 0 98.2787 13.7466 86.7831 34.1074C84.7167 33.7087 82.5828 33.5 80.4001 33.5C65.397 33.5 52.6974 43.3627 48.4311 56.9583C45.436 56.2232 42.3053 55.8333 39.0834 55.8333C17.4983 55.8333 9.15527e-05 73.3315 9.15527e-05 94.9167C9.15527e-05 113.738 13.3047 129.453 31.0223 133.168C32.8369 133.709 34.7595 134 36.7501 134H39.0834Z" fill="white" fill-opacity="0.85"/>
<path d="M280.847 133.939L280.769 132.942L280.845 132.936L280.92 132.941L280.847 133.939ZM282.845 89.3357L282.83 90.3356L282.134 90.3256L281.902 89.6689L282.845 89.3357ZM245.663 67.4638L245.829 68.45L244.644 68.649L244.663 67.4475L245.663 67.4638ZM207.026 41.2173L207.411 42.1405L206.488 42.5246L206.103 41.6024L207.026 41.2173ZM86.7831 34.1074L87.6538 34.599L87.3001 35.2255L86.5936 35.0893L86.7831 34.1074ZM48.4311 56.9583L49.3853 57.2577L49.1042 58.1531L48.1928 57.9294L48.4311 56.9583ZM31.0223 133.168L31.2275 132.189L31.2683 132.198L31.3082 132.21L31.0223 133.168ZM39.0834 133H145.167V135H39.0834V133ZM145.167 133H251.25V135H145.167V133ZM251.25 133H279.267V135H251.25V133ZM279.267 133C279.773 133 280.273 132.98 280.769 132.942L280.925 134.935C280.377 134.978 279.825 135 279.267 135V133ZM280.92 132.941C281.447 132.98 281.98 133 282.517 133V135C281.93 135 281.349 134.978 280.773 134.936L280.92 132.941ZM282.517 133C294.299 133 303.85 123.449 303.85 111.667H305.85C305.85 124.553 295.403 135 282.517 135V133ZM303.85 111.667C303.85 99.9893 294.468 90.5031 282.83 90.3356L282.859 88.3358C295.588 88.519 305.85 98.8943 305.85 111.667H303.85ZM281.902 89.6689C277.44 77.0434 265.4 68 251.25 68V66C266.274 66 279.053 75.6029 283.788 89.0025L281.902 89.6689ZM251.25 68C249.402 68 247.591 68.1541 245.829 68.45L245.497 66.4776C247.369 66.1634 249.291 66 251.25 66V68ZM244.663 67.4475C244.666 67.2987 244.667 67.1495 244.667 67H246.667C246.667 67.1603 246.665 67.3204 246.663 67.4801L244.663 67.4475ZM244.667 67C244.667 52.1343 232.616 40.0833 217.75 40.0833V38.0833C233.72 38.0833 246.667 51.0298 246.667 67H244.667ZM217.75 40.0833C214.085 40.0833 210.593 40.8155 207.411 42.1405L206.642 40.2942C210.063 38.8695 213.816 38.0833 217.75 38.0833V40.0833ZM206.103 41.6024C196.153 17.7566 172.616 1 145.167 1V-1C173.451 -1 197.699 16.2678 207.949 40.8322L206.103 41.6024ZM145.167 1C120.493 1 98.9794 14.5395 87.6538 34.599L85.9123 33.6157C97.5781 12.9536 119.742 -1 145.167 -1V1ZM86.5936 35.0893C84.5894 34.7026 82.5189 34.5 80.4001 34.5V32.5C82.6467 32.5 84.8441 32.7149 86.9725 33.1255L86.5936 35.0893ZM80.4001 34.5C65.8463 34.5 53.5244 44.067 49.3853 57.2577L47.477 56.6589C51.8703 42.6583 64.9476 32.5 80.4001 32.5V34.5ZM48.1928 57.9294C45.2751 57.2133 42.2243 56.8333 39.0834 56.8333V54.8333C42.3862 54.8333 45.597 55.233 48.6695 55.9871L48.1928 57.9294ZM39.0834 56.8333C18.0506 56.8333 1.00009 73.8838 1.00009 94.9167H-0.999908C-0.999908 72.7793 16.946 54.8333 39.0834 54.8333V56.8333ZM1.00009 94.9167C1.00009 113.256 13.9636 128.569 31.2275 132.189L30.8171 134.146C12.6458 130.336 -0.999908 114.221 -0.999908 94.9167H1.00009ZM31.3082 132.21C33.031 132.724 34.8574 133 36.7501 133V135C34.6617 135 32.6428 134.695 30.7364 134.126L31.3082 132.21ZM36.7501 133H39.0834V135H36.7501V133Z" fill="#374667" mask="url(#path-1-inside-1_298_4513)"/>
</g>
<defs>
<filter id="filter0_b_298_4513" x="-4.99988" y="-5" width="314.85" height="144" filterUnits="userSpaceOnUse" color-interpolation-filters="sRGB">
<feFlood flood-opacity="0" result="BackgroundImageFix"/>
<feGaussianBlur in="BackgroundImageFix" stdDeviation="2.5"/>
<feComposite in2="SourceAlpha" operator="in" result="effect1_backgroundBlur_298_4513"/>
<feBlend mode="normal" in="SourceGraphic" in2="effect1_backgroundBlur_298_4513" result="shape"/>
</filter>
</defs>
</svg>
