<svg width="345" height="142" viewBox="0 0 345 142" fill="none" xmlns="http://www.w3.org/2000/svg">
<mask id="path-1-inside-1_217_2669" fill="white">
<path fill-rule="evenodd" clip-rule="evenodd" d="M282.536 142H68.8041H23.1753C22.7492 142 22.3294 141.973 21.9173 141.922C21.3281 141.974 20.7316 142 20.1289 142C9.012 142 0 132.988 0 121.871C0 110.754 9.012 101.742 20.1289 101.742C21.7694 101.742 23.3642 101.939 24.8909 102.309C24.888 102.12 24.8866 101.931 24.8866 101.742C24.8866 79.5085 44.5491 61.4845 68.8041 61.4845C73.2088 61.4845 77.462 62.0789 81.4736 63.185C84.3325 27.8137 113.944 0 150.052 0C172.284 0 192.053 10.5447 204.632 26.9056C212.63 22.8072 221.694 20.4948 231.299 20.4948C257.619 20.4948 279.884 37.8602 287.26 61.7588C306.072 63.9577 320.922 79.1257 322.63 98.0831C322.684 98.0827 322.739 98.0825 322.794 98.0825C334.921 98.0825 344.753 107.914 344.753 120.041C344.753 132.169 334.921 142 322.794 142C322.106 142 321.426 141.968 320.754 141.907C320.305 141.968 319.847 142 319.381 142H282.536Z"/>
</mask>
<path fill-rule="evenodd" clip-rule="evenodd" d="M282.536 142H68.8041H23.1753C22.7492 142 22.3294 141.973 21.9173 141.922C21.3281 141.974 20.7316 142 20.1289 142C9.012 142 0 132.988 0 121.871C0 110.754 9.012 101.742 20.1289 101.742C21.7694 101.742 23.3642 101.939 24.8909 102.309C24.888 102.12 24.8866 101.931 24.8866 101.742C24.8866 79.5085 44.5491 61.4845 68.8041 61.4845C73.2088 61.4845 77.462 62.0789 81.4736 63.185C84.3325 27.8137 113.944 0 150.052 0C172.284 0 192.053 10.5447 204.632 26.9056C212.63 22.8072 221.694 20.4948 231.299 20.4948C257.619 20.4948 279.884 37.8602 287.26 61.7588C306.072 63.9577 320.922 79.1257 322.63 98.0831C322.684 98.0827 322.739 98.0825 322.794 98.0825C334.921 98.0825 344.753 107.914 344.753 120.041C344.753 132.169 334.921 142 322.794 142C322.106 142 321.426 141.968 320.754 141.907C320.305 141.968 319.847 142 319.381 142H282.536Z" fill="white" fill-opacity="0.85"/>
<path d="M21.9173 141.922L22.5399 136.961L22.0104 136.894L21.4788 136.941L21.9173 141.922ZM24.8909 102.309L23.7122 107.168L29.9875 108.69L29.8903 102.234L24.8909 102.309ZM81.4736 63.185L80.1446 68.0051L85.9704 69.6115L86.4573 63.5878L81.4736 63.185ZM204.632 26.9056L200.668 29.9531L203.206 33.2545L206.912 31.3554L204.632 26.9056ZM287.26 61.7588L282.483 63.2334L283.444 66.3467L286.68 66.725L287.26 61.7588ZM322.63 98.0831L317.65 98.5318L318.063 103.116L322.666 103.083L322.63 98.0831ZM320.754 141.907L321.213 136.928L320.642 136.875L320.074 136.953L320.754 141.907ZM282.536 137H68.8041V147H282.536V137ZM68.8041 137H23.1753V147H68.8041V137ZM23.1753 137C22.958 137 22.746 136.986 22.5399 136.961L21.2947 146.883C21.9127 146.96 22.5404 147 23.1753 147V137ZM21.4788 136.941C21.0352 136.98 20.585 137 20.1289 137V147C20.8781 147 21.621 146.967 22.3558 146.902L21.4788 136.941ZM20.1289 137C11.7734 137 5 130.227 5 121.871H-5C-5 135.749 6.25058 147 20.1289 147V137ZM5 121.871C5 113.516 11.7734 106.742 20.1289 106.742V96.7423C6.25058 96.7423 -5 107.993 -5 121.871H5ZM20.1289 106.742C21.3693 106.742 22.5684 106.891 23.7122 107.168L26.0695 97.4498C24.1599 96.9866 22.1696 96.7423 20.1289 96.7423V106.742ZM29.8903 102.234C29.8878 102.07 29.8866 101.906 29.8866 101.742H19.8866C19.8866 101.957 19.8882 102.17 19.8914 102.384L29.8903 102.234ZM29.8866 101.742C29.8866 82.6706 46.8921 66.4845 68.8041 66.4845V56.4845C42.2062 56.4845 19.8866 76.3465 19.8866 101.742H29.8866ZM68.8041 66.4845C72.7579 66.4845 76.5642 67.018 80.1446 68.0051L82.8026 58.3649C78.3599 57.1399 73.6597 56.4845 68.8041 56.4845V66.4845ZM86.4573 63.5878C89.1081 30.7922 116.57 5 150.052 5V-5C111.318 -5 79.557 24.8353 76.4898 62.7822L86.4573 63.5878ZM150.052 5C170.665 5 188.995 14.7702 200.668 29.9531L208.596 23.8581C195.112 6.31919 173.902 -5 150.052 -5V5ZM206.912 31.3554C214.221 27.6102 222.506 25.4948 231.299 25.4948V15.4948C220.883 15.4948 211.039 18.0042 202.352 22.4558L206.912 31.3554ZM231.299 25.4948C255.364 25.4948 275.735 41.3713 282.483 63.2334L292.038 60.2842C284.033 34.3491 259.874 15.4948 231.299 15.4948V25.4948ZM286.68 66.725C303.147 68.6498 316.155 81.938 317.65 98.5318L327.61 97.6344C325.689 76.3135 308.997 59.2656 287.841 56.7926L286.68 66.725ZM322.666 103.083C322.709 103.083 322.752 103.082 322.794 103.082V93.0825C322.727 93.0825 322.66 93.0827 322.593 93.0832L322.666 103.083ZM322.794 103.082C332.16 103.082 339.753 110.675 339.753 120.041H349.753C349.753 105.152 337.683 93.0825 322.794 93.0825V103.082ZM339.753 120.041C339.753 129.407 332.16 137 322.794 137V147C337.683 147 349.753 134.93 349.753 120.041H339.753ZM322.794 137C322.259 137 321.732 136.975 321.213 136.928L320.296 146.885C321.119 146.961 321.953 147 322.794 147V137ZM320.074 136.953C319.85 136.984 319.619 137 319.381 137V147C320.075 147 320.761 146.953 321.434 146.86L320.074 136.953ZM319.381 137H282.536V147H319.381V137Z" fill="#374667" mask="url(#path-1-inside-1_217_2669)"/>
</svg>
