<svg width="305" height="134" viewBox="0 0 305 134" fill="none" xmlns="http://www.w3.org/2000/svg">
<g filter="url(#filter0_b_298_4513)">
<mask id="path-1-inside-1_298_4513" fill="white">
<path fill-rule="evenodd" clip-rule="evenodd" d="M39.0834 134H145.167H251.25H279.267C279.799 134 280.325 133.979 280.847 133.939C281.398 133.979 281.955 134 282.517 134C294.851 134 304.85 124.001 304.85 111.667C304.85 99.4418 295.028 89.5111 282.845 89.3357C278.247 76.3231 265.837 67 251.25 67C249.346 67 247.48 67.1588 245.663 67.4638C245.666 67.3095 245.667 67.1549 245.667 67C245.667 51.5821 233.168 39.0833 217.75 39.0833C213.95 39.0833 210.328 39.8425 207.026 41.2173C196.926 17.0122 173.033 0 145.167 0C120.117 0 98.2787 13.7466 86.7831 34.1074C84.7167 33.7087 82.5828 33.5 80.4001 33.5C65.397 33.5 52.6974 43.3627 48.4311 56.9583C45.436 56.2232 42.3053 55.8333 39.0834 55.8333C17.4983 55.8333 9.15527e-05 73.3315 9.15527e-05 94.9167C9.15527e-05 113.738 13.3047 129.453 31.0223 133.168C32.8369 133.709 34.7595 134 36.7501 134H39.0834Z"/>
</mask>
<path fill-rule="evenodd" clip-rule="evenodd" d="M39.0834 134H145.167H251.25H279.267C279.799 134 280.325 133.979 280.847 133.939C281.398 133.979 281.955 134 282.517 134C294.851 134 304.85 124.001 304.85 111.667C304.85 99.4418 295.028 89.5111 282.845 89.3357C278.247 76.3231 265.837 67 251.25 67C249.346 67 247.48 67.1588 245.663 67.4638C245.666 67.3095 245.667 67.1549 245.667 67C245.667 51.5821 233.168 39.0833 217.75 39.0833C213.95 39.0833 210.328 39.8425 207.026 41.2173C196.926 17.0122 173.033 0 145.167 0C120.117 0 98.2787 13.7466 86.7831 34.1074C84.7167 33.7087 82.5828 33.5 80.4001 33.5C65.397 33.5 52.6974 43.3627 48.4311 56.9583C45.436 56.2232 42.3053 55.8333 39.0834 55.8333C17.4983 55.8333 9.15527e-05 73.3315 9.15527e-05 94.9167C9.15527e-05 113.738 13.3047 129.453 31.0223 133.168C32.8369 133.709 34.7595 134 36.7501 134H39.0834Z" fill="white" fill-opacity="0.85"/>
<path d="M280.847 133.939L280.613 130.948L280.84 130.93L281.068 130.947L280.847 133.939ZM282.845 89.3357L282.802 92.3354L280.712 92.3053L280.016 90.3352L282.845 89.3357ZM245.663 67.4638L246.16 70.4224L242.605 71.0193L242.663 67.415L245.663 67.4638ZM207.026 41.2173L208.179 43.9868L205.412 45.1392L204.258 42.3726L207.026 41.2173ZM86.7831 34.1074L89.3954 35.5823L88.3342 37.4619L86.2148 37.0531L86.7831 34.1074ZM48.4311 56.9583L51.2935 57.8565L50.4505 60.5429L47.7161 59.8718L48.4311 56.9583ZM31.0223 133.168L31.638 130.232L31.7603 130.257L31.8801 130.293L31.0223 133.168ZM39.0834 131H145.167V137H39.0834V131ZM145.167 131H251.25V137H145.167V131ZM251.25 131H279.267V137H251.25V131ZM279.267 131C279.72 131 280.169 130.982 280.613 130.948L281.08 136.929C280.481 136.976 279.877 137 279.267 137V131ZM281.068 130.947C281.546 130.982 282.029 131 282.517 131V137C281.881 137 281.25 136.977 280.626 136.93L281.068 130.947ZM282.517 131C293.194 131 301.85 122.344 301.85 111.667H307.85C307.85 125.658 296.508 137 282.517 137V131ZM301.85 111.667C301.85 101.084 293.347 92.4872 282.802 92.3354L282.888 86.336C296.709 86.5349 307.85 97.7994 307.85 111.667H301.85ZM280.016 90.3352C275.828 78.4839 264.526 70 251.25 70V64C267.148 64 280.665 74.1624 285.673 88.3362L280.016 90.3352ZM251.25 70C249.514 70 247.813 70.1448 246.16 70.4224L245.166 64.5052C247.147 64.1727 249.179 64 251.25 64V70ZM242.663 67.415C242.666 67.2769 242.667 67.1386 242.667 67H248.667C248.667 67.1712 248.665 67.3421 248.663 67.5127L242.663 67.415ZM242.667 67C242.667 53.2389 231.511 42.0833 217.75 42.0833V36.0833C234.825 36.0833 248.667 49.9252 248.667 67H242.667ZM217.75 42.0833C214.353 42.0833 211.122 42.7614 208.179 43.9868L205.873 38.4478C209.534 36.9235 213.548 36.0833 217.75 36.0833V42.0833ZM204.258 42.3726C194.607 19.2455 171.781 3 145.167 3V-3C174.286 -3 199.245 14.7789 209.795 40.062L204.258 42.3726ZM145.167 3C121.243 3 100.381 16.1254 89.3954 35.5823L84.1707 32.6324C96.1767 11.3677 118.992 -3 145.167 -3V3ZM86.2148 37.0531C84.3348 36.6904 82.3911 36.5 80.4001 36.5V30.5C82.7745 30.5 85.0987 30.7271 87.3513 31.1617L86.2148 37.0531ZM80.4001 36.5C66.7451 36.5 55.1785 45.4757 51.2935 57.8565L45.5687 56.0601C50.2162 41.2497 64.0489 30.5 80.4001 30.5V36.5ZM47.7161 59.8718C44.9531 59.1937 42.0624 58.8333 39.0834 58.8333V52.8333C42.5481 52.8333 45.9189 53.2527 49.1462 54.0447L47.7161 59.8718ZM39.0834 58.8333C19.1552 58.8333 3.00009 74.9884 3.00009 94.9167H-2.99991C-2.99991 71.6747 15.8414 52.8333 39.0834 52.8333V58.8333ZM3.00009 94.9167C3.00009 112.29 15.2814 126.802 31.638 130.232L30.4066 136.104C11.328 132.103 -2.99991 115.187 -2.99991 94.9167H3.00009ZM31.8801 130.293C33.4193 130.752 35.0531 131 36.7501 131V137C34.4659 137 32.2545 136.666 30.1645 136.043L31.8801 130.293ZM36.7501 131H39.0834V137H36.7501V131Z" fill="#374667" mask="url(#path-1-inside-1_298_4513)"/>
</g>
<defs>
<filter id="filter0_b_298_4513" x="-4.99988" y="-5" width="314.85" height="144" filterUnits="userSpaceOnUse" color-interpolation-filters="sRGB">
<feFlood flood-opacity="0" result="BackgroundImageFix"/>
<feGaussianBlur in="BackgroundImageFix" stdDeviation="2.5"/>
<feComposite in2="SourceAlpha" operator="in" result="effect1_backgroundBlur_298_4513"/>
<feBlend mode="normal" in="SourceGraphic" in2="effect1_backgroundBlur_298_4513" result="shape"/>
</filter>
</defs>
</svg>
