<svg width="170" height="152" viewBox="0 0 170 152" fill="none" xmlns="http://www.w3.org/2000/svg">
<g id="Group 33">
<g id="Union">
<mask id="path-1-inside-1_340_699" fill="white">
<path fill-rule="evenodd" clip-rule="evenodd" d="M20 0C8.95431 0 0 8.95431 0 20V107.374C0 118.42 8.9543 127.374 20 127.374H67.8226L80.1615 148.746C82.086 152.079 86.8972 152.079 88.8217 148.746L101.161 127.374H149.832C160.878 127.374 169.832 118.42 169.832 107.374V20C169.832 8.95431 160.878 0 149.832 0H20Z"/>
</mask>
<path fill-rule="evenodd" clip-rule="evenodd" d="M20 0C8.95431 0 0 8.95431 0 20V107.374C0 118.42 8.9543 127.374 20 127.374H67.8226L80.1615 148.746C82.086 152.079 86.8972 152.079 88.8217 148.746L101.161 127.374H149.832C160.878 127.374 169.832 118.42 169.832 107.374V20C169.832 8.95431 160.878 0 149.832 0H20Z" fill="white" fill-opacity="0.6"/>
<path d="M67.8226 127.374L72.1528 124.874L70.7094 122.374H67.8226V127.374ZM80.1615 148.746L75.8314 151.246V151.246L80.1615 148.746ZM88.8217 148.746L93.1519 151.246L88.8217 148.746ZM101.161 127.374V122.374H98.2738L96.8305 124.874L101.161 127.374ZM5 20C5 11.7157 11.7157 5 20 5V-5C6.19288 -5 -5 6.19289 -5 20H5ZM5 107.374V20H-5V107.374H5ZM20 122.374C11.7157 122.374 5 115.659 5 107.374H-5C-5 121.181 6.19287 132.374 20 132.374V122.374ZM67.8226 122.374H20V132.374H67.8226V122.374ZM84.4916 146.246L72.1528 124.874L63.4925 129.874L75.8314 151.246L84.4916 146.246ZM84.4916 146.246C84.4843 146.258 84.4794 146.265 84.478 146.267C84.4765 146.269 84.477 146.268 84.4798 146.265C84.4826 146.262 84.4864 146.259 84.4909 146.256C84.4954 146.252 84.4997 146.25 84.5034 146.248C84.511 146.243 84.5141 146.243 84.5113 146.244C84.5079 146.245 84.501 146.246 84.4916 146.246C84.4823 146.246 84.4753 146.245 84.472 146.244C84.4691 146.243 84.4722 146.243 84.4798 146.248C84.4836 146.25 84.4879 146.252 84.4923 146.256C84.4969 146.259 84.5006 146.262 84.5034 146.265C84.5062 146.268 84.5068 146.269 84.5053 146.267C84.5038 146.265 84.4989 146.258 84.4916 146.246L75.8314 151.246C79.6804 157.912 89.3029 157.913 93.1519 151.246L84.4916 146.246ZM96.8305 124.874L84.4916 146.246L93.1519 151.246L105.491 129.874L96.8305 124.874ZM149.832 122.374H101.161V132.374H149.832V122.374ZM164.832 107.374C164.832 115.659 158.117 122.374 149.832 122.374V132.374C163.64 132.374 174.832 121.181 174.832 107.374H164.832ZM164.832 20V107.374H174.832V20H164.832ZM149.832 5C158.117 5 164.832 11.7157 164.832 20H174.832C174.832 6.19289 163.64 -5 149.832 -5V5ZM20 5H149.832V-5H20V5Z" fill="#374667" mask="url(#path-1-inside-1_340_699)"/>
</g>
<g id="heart--reward-social-rating-media-heart-it-like-favorite-love">
<path id="Vector" d="M84.9401 98.594L52.5079 69.2172C34.8816 51.591 60.7922 17.7486 84.9401 45.128C109.088 17.7486 134.881 51.7085 117.373 69.2172L84.9401 98.594Z" fill="#FDCCD0" stroke="#F79CA0" stroke-width="5" stroke-linecap="round" stroke-linejoin="round"/>
</g>
</g>
</svg>
