<svg width="60" height="49" viewBox="0 0 60 49" fill="none" xmlns="http://www.w3.org/2000/svg">
<g id="Group 43">
<path id="Vector" d="M57.1313 5.71872H60V42.8436H57.1313V5.71872Z" fill="#374667"/>
<path id="Vector_2" d="M54.2812 42.8437H57.1312V45.7124H54.2812V42.8437Z" fill="#374667"/>
<path id="Vector_3" d="M54.2812 2.84998H57.1312V5.71872H54.2812V2.84998Z" fill="#374667"/>
<path id="Vector_4" d="M51.4311 8.56873H54.2811V14.2875H51.4311V8.56873Z" fill="#374667"/>
<path id="Vector_5" d="M5.71881 45.7124H54.2812V48.5624H5.71881V45.7124Z" fill="#374667"/>
<path id="Vector_6" d="M48.5624 37.1436H51.4312V39.9936H48.5624V37.1436Z" fill="#374667"/>
<path id="Vector_7" d="M48.5624 14.2875H51.4312V17.1375H48.5624V14.2875Z" fill="#374667"/>
<path id="Vector_8" d="M45.7123 34.2749H48.5623V37.1436H45.7123V34.2749Z" fill="#374667"/>
<path id="Vector_9" d="M45.7123 17.1375H48.5623V19.9874H45.7123V17.1375Z" fill="#374667"/>
<path id="Vector_10" d="M42.8435 31.4249H45.7123V34.2749H42.8435V31.4249Z" fill="#374667"/>
<path id="Vector_11" d="M42.8435 19.9875H45.7123V22.8562H42.8435V19.9875Z" fill="#374667"/>
<path id="Vector_12" d="M39.9936 28.5749H42.8436V31.4249H39.9936V28.5749Z" fill="#374667"/>
<path id="Vector_13" d="M39.9936 22.8562H42.8436V25.7062H39.9936V22.8562Z" fill="#374667"/>
<path id="Vector_14" d="M34.2749 25.7062H39.9936V28.5749H34.2749V25.7062Z" fill="#374667"/>
<path id="Vector_15" d="M25.7061 28.5749H34.2748V31.4249H25.7061V28.5749Z" fill="#374667"/>
<path id="Vector_16" d="M19.9873 25.7062H25.706V28.5749H19.9873V25.7062Z" fill="#374667"/>
<path id="Vector_17" d="M17.1375 28.5749H19.9875V31.4249H17.1375V28.5749Z" fill="#374667"/>
<path id="Vector_18" d="M17.1375 22.8562H19.9875V25.7062H17.1375V22.8562Z" fill="#374667"/>
<path id="Vector_19" d="M14.2875 31.4249H17.1375V34.2749H14.2875V31.4249Z" fill="#374667"/>
<path id="Vector_20" d="M14.2875 19.9875H17.1375V22.8562H14.2875V19.9875Z" fill="#374667"/>
<path id="Vector_21" d="M11.4189 34.2749H14.2876V37.1436H11.4189V34.2749Z" fill="#374667"/>
<path id="Vector_22" d="M11.4189 17.1375H14.2876V19.9874H11.4189V17.1375Z" fill="#374667"/>
<path id="Vector_23" d="M8.56874 37.1436H11.4187V39.9936H8.56874V37.1436Z" fill="#374667"/>
<path id="Vector_24" d="M8.56874 14.2875H11.4187V17.1375H8.56874V14.2875Z" fill="#374667"/>
<path id="Vector_25" d="M5.71881 0H54.2812V2.84999H5.71881V0Z" fill="#374667"/>
<path id="Vector_26" d="M5.71881 8.56873H8.5688V14.2875H5.71881V8.56873Z" fill="#374667"/>
<path id="Vector_27" d="M2.8501 42.8437H5.71884V45.7124H2.8501V42.8437Z" fill="#374667"/>
<path id="Vector_28" d="M2.8501 2.84998H5.71884V5.71872H2.8501V2.84998Z" fill="#374667"/>
<path id="Vector_29" d="M0 5.71872H2.84999V42.8436H0V5.71872Z" fill="#374667"/>
<g id="Group 22">
<path id="Vector_30" d="M22.8529 22.5355H28.5661V30.1531H22.8529V22.5355Z" fill="#374667"/>
<path id="Vector_31" d="M31.4227 22.5355H37.136V30.1531H31.4227V22.5355Z" fill="#374667"/>
<path id="Vector_32" d="M28.5661 25.3921H31.7401V28.5661H28.5661V25.3921Z" fill="#374667"/>
<path id="Vector_33" d="M25.7095 33.0097H29.2009V35.8663H25.7095V33.0097Z" fill="#374667"/>
<path id="Vector_34" d="M31.4227 33.0097H34.2727V35.8597H31.4227V33.0097Z" fill="#374667"/>
<path id="Vector_35" d="M28.5661 28.2487H31.4227V38.7229H28.5661V28.2487Z" fill="#374667"/>
<path id="Vector_36" d="M22.8529 30.1531H34.2793V33.0097H22.8529V30.1531Z" fill="#374667"/>
<path id="Vector_37" d="M34.2793 30.1531H37.1293V33.0031H34.2793V30.1531Z" fill="#374667"/>
<path id="Vector_38" d="M37.136 25.3921H39.9926V30.1531H37.136V25.3921Z" fill="#374667"/>
<path id="Vector_39" d="M19.9962 25.3921H22.8529V30.1531H19.9962V25.3921Z" fill="#374667"/>
</g>
</g>
</svg>
