<svg width="50" height="50" viewBox="0 0 50 50" fill="none" xmlns="http://www.w3.org/2000/svg">
<g id="Interface Essential Profile Female" clip-path="url(#clip0_115_1036)">
<g id="Group">
<path id="Vector" d="M47.6094 19.0469H50V30.9531H47.6094V19.0469Z" fill="#374667"/>
<path id="Vector_2" d="M45.2344 30.9531H47.6094V35.7188H45.2344V30.9531Z" fill="#374667"/>
<path id="Vector_3" d="M45.2344 14.2812H47.6094V19.0469H45.2344V14.2812Z" fill="#374667"/>
<path id="Vector_4" d="M42.8594 35.7188H45.2344V40.4687H42.8594V35.7188Z" fill="#374667"/>
<path id="Vector_5" d="M42.8594 9.53125H45.2344V14.2813H42.8594V9.53125Z" fill="#374667"/>
<path id="Vector_6" d="M40.4688 40.4688H42.8594V42.8594H40.4688V40.4688Z" fill="#374667"/>
<path id="Vector_7" d="M40.4688 7.14062H42.8594V9.53125H40.4688V7.14062Z" fill="#374667"/>
<path id="Vector_8" d="M9.51563 38.0937H11.9062V40.4687H16.6562V38.0937H19.0469V35.7188H16.6562V33.3281H14.2812V23.8125H16.6562V21.4219H33.3281V23.8125H35.7031V33.3281H33.3281V35.7188H30.9531V38.0937H33.3281V40.4687H38.0937V38.0937H40.4687V33.3281H42.8594V21.4219H40.4687V16.6719H38.0937V14.2813H35.7031V11.9063H33.3281V9.53125H16.6562V11.9063H14.2812V14.2813H11.9062V16.6719H9.51563V21.4219H7.14062V33.3281H9.51563V38.0937Z" fill="#374667"/>
<path id="Vector_9" d="M35.7031 42.8594H40.4687V45.2344H35.7031V42.8594Z" fill="#374667"/>
<path id="Vector_10" d="M35.7031 4.76562H40.4687V7.14063H35.7031V4.76562Z" fill="#374667"/>
<path id="Vector_11" d="M30.9531 45.2344H35.7031V47.625H30.9531V45.2344Z" fill="#374667"/>
<path id="Vector_12" d="M30.9531 26.1875H33.3281V30.9531H30.9531V26.1875Z" fill="#374667"/>
<path id="Vector_13" d="M30.9531 2.375H35.7031V4.76562H30.9531V2.375Z" fill="#374667"/>
<path id="Vector_14" d="M19.0469 47.625H30.9531V50H19.0469V47.625Z" fill="#374667"/>
<path id="Vector_15" d="M19.0469 38.0938H30.9531V40.4687H19.0469V38.0938Z" fill="#374667"/>
<path id="Vector_16" d="M21.4219 33.3281H28.5625V35.7188H21.4219V33.3281Z" fill="#374667"/>
<path id="Vector_17" d="M19.0469 0H30.9531V2.375H19.0469V0Z" fill="#374667"/>
<path id="Vector_18" d="M14.2812 45.2344H19.0469V47.625H14.2812V45.2344Z" fill="#374667"/>
<path id="Vector_19" d="M16.6562 26.1875H19.0469V30.9531H16.6562V26.1875Z" fill="#374667"/>
<path id="Vector_20" d="M14.2812 2.375H19.0469V4.76562H14.2812V2.375Z" fill="#374667"/>
<path id="Vector_21" d="M9.51562 42.8594H14.2812V45.2344H9.51562V42.8594Z" fill="#374667"/>
<path id="Vector_22" d="M9.51562 4.76562H14.2812V7.14063H9.51562V4.76562Z" fill="#374667"/>
<path id="Vector_23" d="M7.14062 40.4688H9.51563V42.8594H7.14062V40.4688Z" fill="#374667"/>
<path id="Vector_24" d="M7.14062 7.14062H9.51563V9.53125H7.14062V7.14062Z" fill="#374667"/>
<path id="Vector_25" d="M4.76562 35.7188H7.14063V40.4687H4.76562V35.7188Z" fill="#374667"/>
<path id="Vector_26" d="M4.76562 9.53125H7.14063V14.2813H4.76562V9.53125Z" fill="#374667"/>
<path id="Vector_27" d="M2.375 30.9531H4.76562V35.7188H2.375V30.9531Z" fill="#374667"/>
<path id="Vector_28" d="M2.375 14.2812H4.76562V19.0469H2.375V14.2812Z" fill="#374667"/>
<path id="Vector_29" d="M0 19.0469H2.375V30.9531H0V19.0469Z" fill="#374667"/>
</g>
</g>
<defs>
<clipPath id="clip0_115_1036">
<rect width="50" height="50" fill="white"/>
</clipPath>
</defs>
</svg>
