<svg width="52" height="52" viewBox="0 0 52 52" fill="none" xmlns="http://www.w3.org/2000/svg">
<g id="Logo Linkedin" clip-path="url(#clip0_115_1067)">
<g id="Group">
<path id="Vector" d="M49.5137 4.95624H52V47.0437H49.5137V4.95624Z" fill="#374667"/>
<path id="Vector_2" d="M47.0438 47.0438H49.5138V49.53H47.0438V47.0438Z" fill="#374667"/>
<path id="Vector_3" d="M47.0438 2.47H49.5138V4.95625H47.0438V2.47Z" fill="#374667"/>
<path id="Vector_4" d="M44.5575 7.42624H47.0437V44.5737H44.5575V7.42624Z" fill="#374667"/>
<path id="Vector_5" d="M4.94 49.53H47.0438V52H4.94V49.53Z" fill="#374667"/>
<path id="Vector_6" d="M7.42624 44.5738H44.5575V47.0438H7.42624V44.5738Z" fill="#374667"/>
<path id="Vector_7" d="M37.1312 24.765H34.6612V22.2787H29.705V24.765H27.235V22.2787H22.2787V37.1475H27.235V29.7212H29.705V27.235H32.1912V29.7212H34.6612V37.1475H39.6175V27.235H37.1312V24.765Z" fill="#374667"/>
<path id="Vector_8" d="M12.3662 22.2787H17.3225V37.1475H12.3662V22.2787Z" fill="#374667"/>
<path id="Vector_9" d="M12.3662 14.8525H17.3225V19.8088H12.3662V14.8525Z" fill="#374667"/>
<path id="Vector_10" d="M7.42624 4.95624H44.5575V7.42624H7.42624V4.95624Z" fill="#374667"/>
<path id="Vector_11" d="M4.94 0H47.0438V2.47H4.94V0Z" fill="#374667"/>
<path id="Vector_12" d="M4.94 7.42624H7.42625V44.5737H4.94V7.42624Z" fill="#374667"/>
<path id="Vector_13" d="M2.47 47.0438H4.94V49.53H2.47V47.0438Z" fill="#374667"/>
<path id="Vector_14" d="M2.47 2.47H4.94V4.95625H2.47V2.47Z" fill="#374667"/>
<path id="Vector_15" d="M0 4.95624H2.47V47.0437H0V4.95624Z" fill="#374667"/>
</g>
</g>
<defs>
<clipPath id="clip0_115_1067">
<rect width="52" height="52" fill="white"/>
</clipPath>
</defs>
</svg>
